<svg width="62" height="30" viewBox="0 0 62 30" fill="none" xmlns="http://www.w3.org/2000/svg">
<path d="M60.0305 9.72216C58.717 8.47973 56.7833 7.85386 54.2283 7.85386C52.7533 7.85386 51.4219 8.1349 50.2436 8.67894C49.0653 9.22326 48.1744 9.99418 47.5716 10.9917H47.0276C45.8265 8.90553 43.5418 7.85386 40.1638 7.85386C38.6839 7.85386 37.3797 8.14393 36.2282 8.68826C35.0904 9.24132 34.2183 10.0122 33.6105 10.992H33.2688L32.635 8.26217H32.6171L32.635 8.22577H27.7369L21.2062 21.3942V0H14.6847V6.74744C14.6847 7.98986 14.8378 9.40471 15.1526 11.0007H14.9548C13.4437 8.91455 11.631 7.87162 8.76602 7.87162C6.04025 7.87162 3.89482 8.84203 2.33435 10.8009C0.778214 12.7508 0 15.4805 0 18.9812C0 22.4275 0.764636 25.1299 2.29362 27.08C3.82289 29.0296 5.93222 30 8.60397 30C11.5005 30 13.4344 28.9483 14.8464 26.8532H15.1162L16.3127 29.61H21.2062H22.0251L27.7369 18.0924V29.61H33.8898V19.5614C33.8898 17.0582 34.2498 15.2537 34.9601 14.1656C35.6707 13.0592 36.8178 12.5151 38.3873 12.5151C39.5656 12.5151 40.4203 12.9051 40.9645 13.676C41.5088 14.4469 41.7783 15.5988 41.7783 17.1406V29.6103H47.9312V18.9C47.9312 16.6872 48.3093 15.0638 49.0558 14.0479C49.8025 13.0228 50.9271 12.5151 52.4335 12.5151C53.6075 12.5151 54.4623 12.9051 55.0019 13.676C55.5504 14.4469 55.8202 15.5988 55.8202 17.1406V29.6103H62V15.6894C62.0003 12.9508 61.3437 10.9646 60.0305 9.72216ZM15.4944 19.7979C15.4314 21.8663 15.031 23.335 14.3068 24.2055C13.5875 25.0676 12.4497 25.5024 10.8976 25.5024C9.49918 25.5024 8.41476 24.9767 7.65966 23.9245C6.90369 22.8815 6.52584 21.3036 6.52584 19.1994C6.52584 17.1045 6.90368 15.5082 7.65041 14.4111C8.39685 13.3047 9.44978 12.7513 10.7988 12.7513C12.4537 12.7513 13.6548 13.2499 14.388 14.2384C15.1258 15.2272 15.4944 16.8776 15.4944 19.163V19.7979V19.7979Z" fill="#FDFBF9"/>
</svg>
