<svg width="172" height="172" viewBox="0 0 172 172" fill="none" xmlns="http://www.w3.org/2000/svg">
<path d="M0.791489 171.74L171.77 171.74L171.77 0.594772L0.791504 0.594757L0.791489 171.74Z" fill="#0567FF"/>
<path d="M171.871 171.921L171.871 171.905C171.861 171.912 171.854 171.912 171.845 171.921L171.871 171.921Z" fill="#EEEBE5"/>
<path d="M166.954 50.7462C166.954 50.7462 167.132 51.1387 167.4 51.72C167.68 52.3104 168.052 53.0931 168.432 53.8821C169.184 55.4555 169.941 57.0266 169.941 57.0266C169.941 57.0266 170.663 57.042 171.872 57.0688L171.872 50.9556C171.678 50.9464 171.482 50.9293 171.297 50.9293C168.686 50.8221 166.954 50.7462 166.954 50.7462Z" fill="#EEEBE5"/>
<path d="M164.683 38.465C164.683 38.465 167.769 38.6316 171.872 38.8569L171.872 32.8965C166.524 32.5776 162.04 32.3301 162.04 32.3301L164.683 38.465Z" fill="#EEEBE5"/>
<path d="M154.213 14.6323C154.213 14.6323 154.878 16.0848 155.551 17.5332C155.884 18.2486 156.218 18.9714 156.475 19.51C156.717 20.0787 156.884 20.4507 156.884 20.4507C156.884 20.4507 163.733 20.6823 170.636 21.0588C171.046 21.0811 171.46 21.0987 171.872 21.1318L171.872 15.1446C170.602 15.0859 169.28 15.0311 167.96 14.9701C161.04 14.6637 154.213 14.6323 154.213 14.6323Z" fill="#EEEBE5"/>
<path d="M149.965 1.28655C149.218 1.37783 148.792 1.44286 148.792 1.44286C148.792 1.44286 149.008 1.73495 149.281 2.2404C149.566 2.73958 149.934 3.3962 150.308 4.05454C151.056 5.38491 151.804 6.70556 151.804 6.70556C151.804 6.70556 153.507 6.56525 156.083 6.44031C158.619 6.3399 162.038 6.24917 165.489 6.24233C167.668 6.2332 169.884 6.24917 171.872 6.29139L171.872 0.775961L155.442 0.775959C154.574 0.844988 153.747 0.920865 153.004 0.985329C151.744 1.11084 150.7 1.21125 149.965 1.28655Z" fill="#EEEBE5"/>
<path d="M164.759 120.942C164.759 120.942 165.071 121.317 165.54 121.898C166.017 122.463 166.602 123.253 167.288 123.996C168.699 125.442 170.111 126.886 170.111 126.886C170.111 126.886 170.776 126.73 171.872 126.431L171.872 119.488C170.93 119.713 170.044 119.91 169.26 120.071C166.589 120.626 164.759 120.942 164.759 120.942Z" fill="#EEEBE5"/>
<path d="M151.795 102.136C151.795 102.136 152.761 103.767 153.73 105.403C154.217 106.219 154.698 107.035 155.063 107.643C155.417 108.256 155.7 108.648 155.7 108.648C155.7 108.648 163.196 108.156 170.248 107.001C170.785 106.917 171.328 106.825 171.872 106.733L171.872 100.541C170.124 100.797 168.238 101.047 166.315 101.248C159.217 101.972 151.795 102.136 151.795 102.136Z" fill="#EEEBE5"/>
<path d="M166.286 83.0716C163.57 83.1691 159.997 83.1691 156.397 83.1292C152.788 83.0875 149.157 82.9888 146.416 82.8782C143.685 82.7641 141.868 82.6882 141.868 82.6882C141.868 82.6882 142.055 83.0966 142.33 83.7185C142.626 84.3357 143.02 85.1572 143.416 85.973C144.202 87.6177 144.988 89.2653 144.988 89.2653C144.988 89.2653 146.805 89.3069 149.525 89.3743C152.25 89.4233 155.932 89.4233 159.536 89.3469C163.154 89.2647 166.727 89.109 169.38 88.9481C170.34 88.8842 171.184 88.8169 171.872 88.7502L171.872 84.9992C171.275 83.8679 170.772 82.9044 170.772 82.9044C170.772 82.9044 168.974 82.9694 166.286 83.0716Z" fill="#EEEBE5"/>
<path d="M133.438 63.4579L136.197 69.885C136.197 69.885 143.423 70.2838 150.649 70.682C157.896 71.0237 165.054 71.1812 165.054 71.1812L162.288 65.0114C162.288 65.0114 160.494 64.9372 157.789 64.822C155.089 64.6788 151.484 64.4899 147.88 64.2954C140.656 63.8721 133.438 63.4579 133.438 63.4579Z" fill="#EEEBE5"/>
<path d="M125.265 44.9812C125.265 44.9812 125.964 46.5027 126.67 48.0156C127.017 48.7738 127.367 49.5285 127.633 50.1036C127.892 50.686 128.061 51.0751 128.061 51.0751C128.061 51.0751 135.234 51.325 142.474 51.7169C149.691 52.1322 156.909 52.5464 156.909 52.5464L154.13 46.0948C154.13 46.0948 146.871 45.6464 139.668 45.3366C132.419 45.0143 125.265 44.9812 125.265 44.9812Z" fill="#EEEBE5"/>
<path d="M130.564 26.7766C126.94 26.9261 123.367 27.1851 120.715 27.4315C119.399 27.5656 118.306 27.6751 117.532 27.7487C116.753 27.8491 116.311 27.9153 116.311 27.9153C116.311 27.9153 116.538 28.2142 116.826 28.7465C117.117 29.2679 117.504 29.9611 117.896 30.6565C118.687 32.0473 119.461 33.4268 119.461 33.4268C119.461 33.4268 121.247 33.2773 123.945 33.1438C126.605 33.0457 130.185 32.9538 133.798 32.9447C137.403 32.9207 141.092 32.9875 143.806 33.0679C146.52 33.1706 148.332 33.2277 148.332 33.2277C148.332 33.2277 148.149 32.8197 147.857 32.2048C147.568 31.5807 147.209 30.7654 146.777 29.9434C145.938 28.2873 145.112 26.6425 145.112 26.6425C145.112 26.6425 143.289 26.6163 140.562 26.5827C139.201 26.6009 137.623 26.6009 135.922 26.61C134.209 26.6431 132.374 26.6922 130.564 26.7766Z" fill="#EEEBE5"/>
<path d="M108.882 17.2273C109.222 17.6746 109.449 17.9741 109.449 17.9741C109.449 17.9741 111.128 17.5086 113.719 16.8999C116.286 16.3174 119.915 15.545 123.437 15.0966C130.501 14.0897 138.005 13.7668 138.005 13.7668L133.785 7.273C133.785 7.273 133.328 7.32149 132.534 7.39793C131.716 7.49834 130.559 7.63867 129.17 7.80525C126.391 8.17093 122.765 8.76825 119.274 9.51729C117.506 9.90008 115.823 10.2657 114.178 10.7318C112.533 11.1973 111.032 11.6697 109.77 12.0884C107.237 12.927 105.625 13.5683 105.625 13.5683C105.625 13.5683 106.605 14.6225 107.588 15.6791C108.104 16.1691 108.554 16.7772 108.882 17.2273Z" fill="#EEEBE5"/>
<path d="M94.0193 2.54953C95.2349 3.66369 96.4659 4.78467 96.4659 4.78467C96.4659 4.78467 101.059 2.87185 106.558 0.775898L92.049 0.775897C92.1379 0.851771 92.2291 0.927054 92.3317 1.01149C92.7951 1.4325 93.4026 1.9916 94.0193 2.54953Z" fill="#EEEBE5"/>
<path d="M157.164 171.921L171.847 171.921C171.856 171.912 171.862 171.912 171.871 171.906L171.871 164.594C170.028 165.537 167.997 166.557 165.954 167.581C162.812 169.154 159.658 170.707 157.164 171.921Z" fill="#EEEBE5"/>
<path d="M149.218 150.891C145.632 152.02 141.76 153.06 139.018 153.591C136.228 154.184 134.309 154.501 134.309 154.501C134.309 154.501 134.636 154.906 135.13 155.506C135.634 156.106 136.243 156.928 136.963 157.702C138.432 159.214 139.91 160.728 139.91 160.728C139.91 160.728 141.821 160.262 144.577 159.447C145.948 159.023 147.534 158.532 149.294 158.058C150.138 157.811 151.104 157.434 151.97 157.062C152.816 156.661 153.675 156.246 154.539 155.83C161.416 152.538 168.18 149.153 168.18 149.153L162.469 144.87C162.469 144.87 162.039 145.088 161.298 145.445C160.536 145.777 159.835 146.644 158.664 147.257C157.583 147.964 156.044 148.496 154.427 149.104C152.793 149.71 151.024 150.325 149.218 150.891Z" fill="#EEEBE5"/>
<path d="M120.809 134.893C120.809 134.893 121.819 136.607 122.835 138.309C123.345 139.158 123.845 140.013 124.228 140.656C124.594 141.295 124.894 141.71 124.894 141.71C124.894 141.71 132.726 141.197 140.097 139.983C143.748 139.432 147.529 138.543 150.211 137.871C152.921 137.179 154.664 136.655 154.664 136.655C154.664 136.655 153.679 135.434 152.689 134.219C152.195 133.611 151.685 133.014 151.357 132.49C151.021 132 150.792 131.657 150.792 131.657C150.792 131.657 143.626 133.173 135.985 133.97C128.568 134.719 120.809 134.893 120.809 134.893Z" fill="#EEEBE5"/>
<path d="M135.997 115.032C133.148 115.132 129.416 115.132 125.65 115.089C121.878 115.048 118.078 114.941 115.217 114.824C112.358 114.708 110.462 114.626 110.462 114.626C110.462 114.626 110.656 115.058 110.945 115.698C111.25 116.344 111.671 117.202 112.078 118.06C112.898 119.789 113.726 121.51 113.726 121.51C113.726 121.51 115.618 121.552 118.465 121.608C121.31 121.668 125.169 121.668 128.933 121.586C132.713 121.51 136.449 121.343 139.227 121.178C142.039 120.969 143.9 120.779 143.9 120.779C143.9 120.779 143.014 119.39 142.255 117.851C141.464 116.356 140.676 114.849 140.676 114.849C140.676 114.849 138.798 114.925 135.997 115.032Z" fill="#EEEBE5"/>
<path d="M119.682 102.134C127.256 102.502 134.738 102.658 134.738 102.658L131.853 96.2061C131.853 96.2061 129.966 96.1234 127.145 96.0053C124.322 95.8495 120.55 95.6556 116.784 95.4576C109.237 95.0252 101.683 94.5842 101.683 94.5842L104.573 101.302C104.572 101.303 112.128 101.72 119.682 102.134Z" fill="#EEEBE5"/>
<path d="M108.229 75.6975C100.652 75.37 93.1653 75.3295 93.1653 75.3295C93.1653 75.3295 93.8977 76.9097 94.6346 78.4957C94.9954 79.2938 95.3693 80.0845 95.6474 80.6749C95.9078 81.2899 96.0862 81.6978 96.0862 81.6978C96.0862 81.6978 103.589 81.9568 111.156 82.3647C118.703 82.8057 126.246 83.2358 126.246 83.2358L123.347 76.4922C123.348 76.4922 115.753 76.0198 108.229 75.6975Z" fill="#EEEBE5"/>
<path d="M115.684 59.6748C114.814 57.9457 113.943 56.2251 113.943 56.2251C113.943 56.2251 112.039 56.1977 109.181 56.1732C107.765 56.1732 106.112 56.1732 104.341 56.1914C102.54 56.2251 100.63 56.2736 98.7355 56.3581C94.9444 56.5229 91.2108 56.7973 88.4478 57.0535C87.0651 57.1875 85.9185 57.2971 85.1109 57.3787C84.2982 57.4876 83.8331 57.5463 83.8331 57.5463C83.8331 57.5463 84.0713 57.8607 84.3694 58.4266C84.6743 58.9674 85.0841 59.6902 85.4961 60.4233C86.3134 61.8695 87.1324 63.3242 87.1324 63.3242C87.1324 63.3242 88.9955 63.1662 91.8166 63.0258C94.5996 62.9169 98.3377 62.825 102.115 62.8096C105.889 62.7942 109.742 62.8593 112.578 62.9409C115.421 63.0413 117.314 63.1085 117.314 63.1085C117.314 63.1085 117.116 62.6847 116.811 62.036C116.508 61.3857 116.134 60.5391 115.684 59.6748Z" fill="#EEEBE5"/>
<path d="M81.6329 39.6538C79.9231 40.1325 78.3535 40.6225 77.0313 41.0647C74.3777 41.9381 72.6924 42.6038 72.6924 42.6038C72.6924 42.6038 73.7189 43.7117 74.7516 44.8076C75.2901 45.3319 75.7581 45.9714 76.1074 46.4346C76.4568 46.9024 76.6979 47.2104 76.6979 47.2104C76.6979 47.2104 78.4498 46.7267 81.161 46.0963C83.8442 45.4882 87.6399 44.6741 91.3222 44.1995C98.7045 43.1526 106.548 42.82 106.548 42.82L102.135 36.0278C102.135 36.0278 101.661 36.0769 100.833 36.1613C99.9806 36.26 98.7626 36.409 97.311 36.5824C94.4101 36.9686 90.6235 37.5876 86.9634 38.372C85.1237 38.7776 83.3586 39.1609 81.6329 39.6538Z" fill="#EEEBE5"/>
<path d="M62.2987 26.9684C59.7187 28.0831 57.9929 28.8322 57.9929 28.8322C57.9929 28.8322 58.3292 29.1146 58.841 29.5293C59.3197 29.9709 59.9586 30.5528 60.5975 31.1427C61.8798 32.3064 63.1576 33.4805 63.1576 33.4805C63.1576 33.4805 70.0503 30.6109 77.2051 27.9747C80.7763 26.6883 84.3828 25.2986 87.1321 24.6157C89.8985 23.8513 91.8135 23.4286 91.8135 23.4286C91.8135 23.4286 91.4482 23.0384 90.9027 22.4548C90.3619 21.8814 89.6295 21.0599 88.9097 20.3525C87.4963 19.0627 86.0937 17.774 86.0937 17.774C86.0937 17.7808 78.8294 20.3017 71.8279 23.0709C68.3228 24.4486 64.8679 25.8708 62.2987 26.9684Z" fill="#EEEBE5"/>
<path d="M47.3684 20.0361C47.3684 20.0361 54.0987 16.8175 61.029 13.7654C67.9416 10.7059 75.0435 7.7947 75.0435 7.7947L69.2484 2.99696C69.2484 2.99696 62.2315 5.98971 55.4186 9.13421C52.0213 10.6876 48.5664 12.3609 46.0239 13.5823C43.4792 14.8305 41.774 15.6548 41.774 15.6548C41.774 15.6548 43.1857 16.7342 44.5991 17.8232C46.0279 18.9037 47.3684 20.0361 47.3684 20.0361Z" fill="#EEEBE5"/>
<path d="M30.6609 7.12207C30.6609 7.12207 36.8765 3.95474 43.3594 0.775427L28.8861 0.775426C26.473 2.00026 24.8653 2.81436 24.8653 2.81436L30.6609 7.12207Z" fill="#EEEBE5"/>
<path d="M125.151 169.501C125.151 169.501 124.123 168.231 123.085 166.957C122.569 166.327 122.041 165.702 121.703 165.154C121.353 164.637 121.115 164.289 121.115 164.289C121.115 164.289 113.626 165.861 105.66 166.701C97.9243 167.482 89.8228 167.665 89.8228 167.665C89.8228 167.665 90.8783 169.444 91.9333 171.224C92.0689 171.455 92.2097 171.687 92.3453 171.922L115.628 171.922C117.432 171.532 119.107 171.124 120.506 170.768C123.328 170.052 125.151 169.501 125.151 169.501Z" fill="#EEEBE5"/>
<path d="M110.591 146.802C110.591 146.802 108.636 146.878 105.705 146.985C102.733 147.094 98.8409 147.094 94.9135 147.051C90.9753 147.002 87.0058 146.893 84.0228 146.777C81.0398 146.652 79.0604 146.57 79.0604 146.57C79.0604 146.57 79.2627 147.011 79.5659 147.685C79.8862 148.358 80.3182 149.246 80.7502 150.153C81.6097 151.948 82.4646 153.746 82.4646 153.746C82.4646 153.746 84.4479 153.788 87.4116 153.853C90.3837 153.912 94.4063 153.912 98.336 153.831C102.285 153.747 106.176 153.572 109.075 153.397C112.016 153.189 113.953 152.979 113.953 152.979C113.953 152.979 113.029 151.542 112.237 149.935C111.41 148.364 110.591 146.802 110.591 146.802Z" fill="#EEEBE5"/>
<path d="M88.7026 133.588C96.6063 133.971 104.409 134.139 104.409 134.139L101.397 127.402C101.397 127.402 99.4337 127.319 96.4883 127.185C93.5429 127.036 89.6116 126.828 85.6728 126.62C77.801 126.163 69.9241 125.714 69.9241 125.714L72.9407 132.723C72.9407 132.723 80.8148 133.158 88.7026 133.588Z" fill="#EEEBE5"/>
<path d="M92.553 106.892C92.553 106.892 84.6299 106.4 76.7751 106.058C68.8725 105.719 61.0622 105.677 61.0622 105.677C61.0622 105.677 61.8237 107.33 62.5919 108.987C62.9726 109.808 63.3556 110.639 63.6474 111.257C63.9255 111.896 64.1102 112.32 64.1102 112.32C64.1102 112.32 71.9353 112.592 79.8277 113.017C87.7064 113.475 95.5811 113.925 95.5811 113.925L92.553 106.892Z" fill="#EEEBE5"/>
<path d="M77.8036 85.7368C76.3298 85.7482 74.6046 85.7545 72.75 85.7636C70.8733 85.7978 68.8808 85.8549 66.8992 85.9467C62.9433 86.1042 59.0559 86.3946 56.1686 86.653C54.7284 86.8025 53.5304 86.9183 52.6909 87.0027C51.836 87.1094 51.3573 87.1847 51.3573 87.1847C51.3573 87.1847 51.6047 87.5076 51.9118 88.0986C52.2344 88.6651 52.6579 89.4204 53.083 90.178C53.9379 91.6915 54.7928 93.2021 54.7928 93.2021C54.7928 93.2021 56.7408 93.0373 59.6816 92.897C62.5848 92.7811 66.4854 92.6807 70.4344 92.663C74.3641 92.6476 78.3912 92.7235 81.3457 92.8057C84.3087 92.9129 86.2881 92.9802 86.2881 92.9802C86.2881 92.9802 86.0789 92.5296 85.7672 91.8678C85.4531 91.1923 85.057 90.2944 84.5897 89.397C83.6841 87.5914 82.7733 85.7978 82.7733 85.7978C82.7733 85.7978 80.7826 85.7705 77.8036 85.7368Z" fill="#EEEBE5"/>
<path d="M69.116 64.9174C68.2344 65.0201 66.9634 65.1758 65.4452 65.359C62.4194 65.7572 58.4704 66.4087 54.6542 67.2216C52.7261 67.6449 50.8875 68.0442 49.086 68.5617C47.3004 69.0677 45.671 69.5668 44.2861 70.0324C41.5253 70.9457 39.762 71.6457 39.762 71.6457C39.762 71.6457 40.8329 72.7929 41.9061 73.9407C42.4669 74.4907 42.957 75.1456 43.3178 75.6425C43.6871 76.1263 43.9344 76.4497 43.9344 76.4497C43.9344 76.4497 45.7644 75.9437 48.5964 75.2768C51.397 74.6464 55.3552 73.797 59.2022 73.2978C66.9076 72.211 75.0889 71.8607 75.0889 71.8607L70.4827 64.7759C70.4833 64.777 69.9823 64.8261 69.116 64.9174Z" fill="#EEEBE5"/>
<path d="M44.5196 56.4315C48.2441 55.0834 52.013 53.6378 54.8831 52.915C57.7664 52.1243 59.7651 51.6834 59.7651 51.6834C59.7651 51.6834 59.3844 51.2778 58.8168 50.6696C58.2491 50.0718 57.4746 49.2143 56.7354 48.4744C55.2661 47.1281 53.7969 45.7886 53.7969 45.7886C53.7969 45.7886 46.2163 48.4253 38.9098 51.3108C35.2452 52.749 31.641 54.2374 28.9652 55.3761C26.2712 56.5416 24.4725 57.3214 24.4725 57.3214C24.4725 57.3214 24.8309 57.6198 25.3587 58.0545C25.8597 58.5109 26.5254 59.1259 27.1933 59.7318C28.5269 60.9554 29.8583 62.1763 29.8583 62.1763C29.864 62.1763 37.0525 59.1755 44.5196 56.4315Z" fill="#EEEBE5"/>
<path d="M12.0183 41.4539C9.36018 42.7421 7.59227 43.6064 7.59227 43.6064C7.59227 43.6064 9.07068 44.7479 10.5377 45.8775C12.0337 46.9985 13.4295 48.1816 13.4295 48.1816C13.4295 48.1816 20.451 44.8295 27.6845 41.6427C34.893 38.4458 42.3066 35.4165 42.3066 35.4165L36.258 30.4116C36.258 30.4116 28.9401 33.5208 21.8336 36.8051C18.2807 38.4258 14.6765 40.1823 12.0183 41.4539Z" fill="#EEEBE5"/>
<path d="M24.3799 20.8818L18.2441 16.1514C18.2441 16.1514 11.14 19.5452 4.07859 23.1284C3.01226 23.6675 1.94365 24.2066 0.899547 24.7326L0.899547 32.2983C3.4796 31.0011 6.79712 29.3455 10.1255 27.7168C17.1869 24.2494 24.3799 20.8818 24.3799 20.8818Z" fill="#EEEBE5"/>
<path d="M0.899915 3.16509L0.899914 9.88135L6.26758 7.15387L0.899915 3.16509Z" fill="#EEEBE5"/>
<path d="M65.8417 158.377C62.7715 158.22 58.6754 158.003 54.581 157.787C46.3729 157.312 38.171 156.84 38.171 156.84L41.3079 164.147C41.3079 164.147 49.5229 164.588 57.7333 165.047C65.9596 165.446 74.0942 165.618 74.0942 165.618L70.9574 158.61C70.9579 158.609 68.9164 158.517 65.8417 158.377Z" fill="#EEEBE5"/>
<path d="M64.9238 144.616L61.7625 137.288C61.7625 137.288 53.5099 136.776 45.3281 136.425C37.091 136.067 28.9604 136.027 28.9604 136.027C28.9604 136.027 29.7572 137.745 30.5522 139.468C30.9506 140.333 31.3536 141.191 31.6522 141.845C31.9417 142.502 32.1378 142.944 32.1378 142.944C32.1378 142.944 40.2905 143.227 48.51 143.675C56.7175 144.15 64.9238 144.616 64.9238 144.616Z" fill="#EEEBE5"/>
<path d="M50.1128 122.683C53.1989 122.792 55.2598 122.865 55.2598 122.865C55.2598 122.865 55.0438 122.4 54.7212 121.693C54.3872 120.987 53.9797 120.065 53.4901 119.124C52.5441 117.254 51.6026 115.376 51.6026 115.376C51.6026 115.376 49.532 115.348 46.4219 115.316C44.8814 115.325 43.0867 115.325 41.1592 115.34C39.2067 115.376 37.1298 115.441 35.0661 115.532C30.9473 115.699 26.8888 115.998 23.8836 116.272C22.3876 116.422 21.1366 116.546 20.2635 116.631C19.3795 116.756 18.8677 116.813 18.8677 116.813C18.8677 116.813 19.1304 117.163 19.449 117.77C19.7921 118.357 20.2327 119.148 20.6755 119.94C21.5658 121.518 22.4543 123.089 22.4543 123.089C22.4543 123.089 24.4843 122.927 27.546 122.766C30.5717 122.648 34.6347 122.55 38.7507 122.534C42.8399 122.506 47.0317 122.583 50.1128 122.683Z" fill="#EEEBE5"/>
<path d="M43.6309 100.904L38.8287 93.5302C38.8287 93.5302 38.3169 93.5792 37.4152 93.6705C36.4891 93.7886 35.1709 93.9443 33.5814 94.1337C30.4354 94.5599 26.3194 95.2325 22.3407 96.0814C20.3346 96.5138 18.4202 96.9377 16.5503 97.4608C14.6889 97.9936 12.9836 98.5265 11.5389 98.9988C8.66931 99.9567 6.82788 100.678 6.82788 100.678C6.82788 100.678 7.95464 101.877 9.06542 103.083C9.65302 103.638 10.1585 104.331 10.537 104.844C10.9199 105.352 11.1827 105.693 11.1827 105.693C11.1827 105.693 13.0817 105.154 16.0339 104.471C18.9479 103.814 23.0713 102.931 27.0762 102.41C35.1082 101.269 43.6309 100.904 43.6309 100.904Z" fill="#EEEBE5"/>
<path d="M22.6264 81.2247C25.6276 80.3935 27.7021 79.936 27.7021 79.936C27.7021 79.936 27.3123 79.5133 26.7179 78.8795C26.1303 78.2554 25.3284 77.3574 24.5453 76.5936C23.0225 75.1964 21.4911 73.7919 21.4911 73.7919C21.4911 73.7919 13.5947 76.5359 5.98735 79.5532C4.24622 80.2287 2.52564 80.9252 0.900203 81.5893L0.900202 89.0991C3.78118 87.9433 7.75925 86.3808 11.8291 84.8827C15.7114 83.4799 19.6297 81.9641 22.6264 81.2247Z" fill="#EEEBE5"/>
<path d="M3.27282 57.8176C3.27282 57.8176 2.37577 58.2009 0.90193 58.8399L0.901929 66.6641C5.77312 64.5852 9.57568 63.0386 9.57568 63.0386L3.27282 57.8176Z" fill="#EEEBE5"/>
<path d="M13.8776 166.792C9.00193 166.576 4.1644 166.477 0.898729 166.424L0.898728 171.922L32.79 171.922L30.9691 167.69C30.9691 167.69 22.3889 167.157 13.8776 166.792Z" fill="#EEEBE5"/>
<path d="M18.886 152.547C22.101 152.655 24.2422 152.73 24.2422 152.73C24.2422 152.73 24.0171 152.246 23.6768 151.516C23.3275 150.783 22.9086 149.82 22.4013 148.846C21.4171 146.891 20.4334 144.946 20.4334 144.946C20.4334 144.946 18.283 144.921 15.0481 144.888C13.4472 144.897 11.5818 144.897 9.5757 144.913C7.54563 144.954 5.38163 145.013 3.23757 145.104C2.4562 145.138 1.67254 145.18 0.901999 145.22L0.901998 152.471C2.85912 152.429 4.95589 152.405 7.06405 152.398C11.3277 152.372 15.6864 152.448 18.886 152.547Z" fill="#EEEBE5"/>
<path d="M7.18048 122.287C7.18048 122.287 6.63962 122.336 5.70209 122.437C4.73835 122.552 3.36653 122.719 1.72172 122.918C1.45671 122.96 1.17855 122.994 0.90214 123.036L0.902139 130.809C7.03113 130.179 12.165 129.963 12.165 129.963L7.18048 122.287Z" fill="#EEEBE5"/>
<path d="M0.941299 107.093C0.929905 107.077 0.914536 107.061 0.903712 107.051L0.903712 108.437C1.58219 108.273 1.96729 108.19 1.96729 108.19C1.96729 108.19 1.55768 107.749 0.941299 107.093Z" fill="#EEEBE5"/>
</svg>
