<svg width="186" height="185" viewBox="0 0 186 185" fill="none" xmlns="http://www.w3.org/2000/svg">
<path d="M0.680481 184.7L185.199 184.7L185.199 0.00178528L0.680497 0.00176913L0.680481 184.7Z" fill="#F65097"/>
<path d="M185.202 184.7L185.202 184.147L184.01 184.7L185.202 184.7Z" fill="#FDFBF9"/>
<path d="M182.161 36.452C181.241 38.9245 180.388 41.4179 180.388 41.4179C180.388 41.4179 178.903 39.5069 177.421 37.5965C175.975 35.651 174.521 33.7061 174.521 33.7061L168.961 38.379C168.961 38.379 171.061 40.2451 173.156 42.1087C175.246 43.9637 177.406 45.7645 177.406 45.7645L168.072 50.7218C168.072 50.7218 169.167 52.3619 170.354 54.002C170.948 54.8215 171.534 55.644 171.981 56.2554C172.442 56.8686 172.752 57.2774 172.752 57.2774C172.752 57.2774 174.662 55.4544 176.575 53.6332C178.507 51.8251 180.438 50.0212 180.438 50.0212C180.438 50.0212 180.69 50.6658 181.067 51.6348C181.444 52.599 181.954 53.8931 182.521 55.178C183.069 56.4721 183.638 57.7625 184.109 58.7223C184.572 59.692 184.878 60.3335 184.878 60.3335C184.878 60.3335 184.997 60.2572 185.202 60.1297L185.202 32.1799C184.496 31.8043 184.003 31.5322 184.003 31.5322C184.003 31.5322 183.083 33.9869 182.161 36.452Z" fill="#FDFBF9"/>
<path d="M159.572 8.85593C159.572 8.85593 158.046 6.93444 156.52 5.01973C154.988 3.10995 153.378 1.25681 153.378 1.25681L148.152 6.29539C148.152 6.29539 148.695 6.68755 149.478 7.31429C150.266 7.94966 151.316 8.78634 152.364 9.63103C154.452 11.3555 156.52 13.149 156.52 13.149L147.148 18.0053C147.148 18.0053 148.128 19.5032 149.101 20.9968C150.077 22.5211 151.052 24.0363 151.052 24.0363L159.293 17.4179L162.294 27.7832L168.935 24.9598L164.439 16.3725L174.991 17.2382C174.991 17.2382 174.809 15.345 174.631 13.4506C174.433 11.5408 174.234 9.63595 174.234 9.63595L164.61 11.0699C164.61 11.0699 165.854 8.89348 167.101 6.71896C168.331 4.51613 169.552 2.31144 169.552 2.31144C169.552 2.31144 167.87 1.37997 166.198 0.454012C165.907 0.303174 165.621 0.149222 165.342 0.000231587L162.416 0.00023133C162.125 0.990831 161.702 2.40256 161.253 3.79457C160.412 6.32617 159.572 8.85593 159.572 8.85593Z" fill="#FDFBF9"/>
<path d="M182.179 89.0941C182.179 89.0941 181.838 91.7224 181.805 94.358C181.699 97.0515 181.951 99.7574 181.951 99.7574C181.951 99.7574 181.403 99.4735 180.579 99.0573C179.782 98.5814 178.72 97.9485 177.658 97.3144C176.622 96.6113 175.604 95.907 174.832 95.3775C174.09 94.805 173.595 94.4208 173.595 94.4208C173.595 94.4208 172.535 96.0049 171.483 97.5877C170.445 99.1915 169.409 100.789 169.409 100.789C169.409 100.789 170.104 101.157 171.194 101.64C172.285 102.124 173.681 102.797 175.178 103.32C175.911 103.59 176.636 103.86 177.323 104.12C178.028 104.335 178.678 104.534 179.24 104.697C180.348 105.024 181.093 105.24 181.093 105.24C181.093 105.24 179.481 107.48 177.806 109.688C176.139 111.898 174.407 114.067 174.407 114.067C174.407 114.067 174.957 114.389 175.772 114.875C176.622 115.329 177.785 115.906 178.943 116.481C180.233 117.125 180.894 117.416 181.595 117.751C182.241 118.058 182.679 118.257 182.679 118.257L185.202 110.61L185.202 89.2542C183.683 89.2813 182.179 89.0941 182.179 89.0941Z" fill="#FDFBF9"/>
<path d="M142.996 68.0759C142.996 68.0759 145.189 70.0281 147.385 71.9865C149.581 73.9271 151.842 75.8122 151.842 75.8122L142.064 81.009C142.064 81.009 143.21 82.7236 144.457 84.4382C145.079 85.302 145.697 86.1602 146.153 86.803C146.644 87.4494 146.96 87.8773 146.96 87.8773C146.96 87.8773 148.973 85.9675 150.98 84.0565C152.995 82.164 155.016 80.2752 155.016 80.2752C155.016 80.2752 155.28 80.9511 155.676 81.9614C156.071 82.9754 156.606 84.3348 157.202 85.677C157.771 87.0333 158.374 88.3846 158.864 89.3851C159.35 90.3991 159.669 91.0732 159.669 91.0732C159.669 91.0732 161.27 90.0679 162.87 89.0619C164.46 88.0374 166.056 87.008 166.056 87.008C166.056 87.008 165.661 86.5149 165.109 85.7533C164.566 84.9886 163.804 83.9925 163.103 82.9539C162.403 81.9146 161.697 80.8804 161.171 80.1009C160.664 79.3073 160.33 78.7803 160.33 78.7803C160.33 78.7803 163.076 78.7705 165.805 78.5981C167.146 78.5039 168.491 78.4128 169.503 78.3402C170.51 78.2373 171.175 78.1727 171.175 78.1727C171.175 78.1727 171.089 77.7251 170.961 77.0565C170.844 76.3762 170.697 75.4724 170.545 74.5674C170.392 73.6808 170.255 72.7739 170.164 72.0838C170.068 71.4035 170 70.9485 170 70.9485C170 70.9485 167.583 71.6122 165.135 72.2088C162.684 72.7684 160.224 73.3311 160.224 73.3311C160.224 73.3311 161.483 71.063 162.751 68.7986C164.054 66.5595 165.358 64.3222 165.358 64.3222C165.358 64.3178 163.703 63.5193 162.059 62.6513C160.404 61.8066 158.756 60.9028 158.756 60.9028C158.756 60.9028 157.79 63.4781 156.82 66.0534C155.859 68.6484 154.96 71.2576 154.96 71.2576C154.96 71.2576 153.406 69.2542 151.864 67.249C150.343 65.2241 148.815 63.1838 148.815 63.1838L142.996 68.0759Z" fill="#FDFBF9"/>
<path d="M122.27 49.9773C123.291 51.5719 124.312 53.1689 124.312 53.1689L132.942 46.2372L136.096 57.0937L143.049 54.1305L138.338 45.1364L149.39 46.0482C149.39 46.0482 149.205 44.0682 149.016 42.0827C148.805 40.0861 148.597 38.0852 148.597 38.0852L138.509 39.5844C138.509 39.5844 139.816 37.3039 141.126 35.0266C142.406 32.7203 143.692 30.4147 143.692 30.4147C143.692 30.4147 141.928 29.4383 140.172 28.4643C138.398 27.5112 136.625 26.5588 136.625 26.5588C136.625 26.5588 135.859 29.2929 134.996 31.9631C134.117 34.611 133.238 37.2701 133.238 37.2701C133.238 37.2701 131.643 35.2575 130.043 33.2473C128.433 31.2489 126.747 29.3077 126.747 29.3077L121.278 34.5845C121.278 34.5845 121.845 34.9903 122.662 35.6521C123.489 36.3158 124.587 37.1956 125.689 38.076C127.869 39.8823 130.043 41.7632 130.043 41.7632L120.216 46.8565C120.215 46.8559 121.241 48.4191 122.27 49.9773Z" fill="#FDFBF9"/>
<path d="M105.469 5.40364C105.587 6.45519 105.668 7.15706 105.668 7.15706C105.668 7.15706 105.082 6.84923 104.208 6.39056C103.333 5.90973 102.146 5.39011 100.957 4.87234C99.7799 4.3361 98.5903 3.83124 97.6825 3.50371C96.7722 3.15586 96.1781 2.92682 96.1781 2.92682C96.1781 2.92682 95.6091 4.73996 95.0494 6.55801C94.4633 8.36682 93.8839 10.1744 93.8839 10.1744C93.8839 10.1744 94.5568 10.2754 95.5704 10.425C96.5748 10.5881 97.8892 10.8738 99.2466 11.1392C100.602 11.4064 101.814 11.7641 102.821 12.0066C103.314 12.1224 103.701 12.2886 103.989 12.3773C104.27 12.4672 104.426 12.5213 104.426 12.5213C104.426 12.5213 102.624 14.6189 100.875 16.7515C99.1168 18.8731 97.418 21.0427 97.418 21.0427C97.418 21.0427 97.7132 21.252 98.1487 21.5666C98.5811 21.8935 99.1747 22.2568 99.751 22.7284C100.337 23.1975 100.912 23.6666 101.349 24.0182C101.794 24.3623 102.07 24.6431 102.07 24.6431C102.07 24.6431 103.687 22.3978 105.301 20.1482C106.877 17.8807 108.446 15.6052 108.446 15.6052C108.446 15.6052 108.544 15.7523 108.703 15.9924C108.859 16.2473 109.08 16.6112 109.34 17.0415C109.861 17.9114 110.568 19.0326 111.178 20.2356C111.809 21.4158 112.427 22.5825 112.845 23.506C113.277 24.4073 113.558 25.0088 113.558 25.0088C113.558 25.0088 115.145 23.9677 116.732 22.9377C118.325 21.9237 119.916 20.9103 119.916 20.9103C119.916 20.9103 119.548 20.3907 118.95 19.6365C118.345 18.8928 117.585 17.8499 116.74 16.8802C115.891 15.9081 115.079 14.9002 114.402 14.199C113.731 13.4873 113.287 13.0175 113.287 13.0175C113.287 13.0175 113.977 12.8981 115.012 12.7103C116.072 12.5275 117.465 12.3256 118.871 12.1686C120.274 12.0073 121.708 11.8804 122.799 11.7967C123.873 11.7216 124.586 11.6736 124.586 11.6736C124.586 11.6736 124.435 11.1613 124.144 10.3899C123.842 9.61785 123.445 8.58784 123.044 7.55414C122.653 6.51059 122.169 5.47877 121.8 4.69441C121.432 3.91499 121.189 3.39105 121.189 3.39105C121.189 3.39105 118.751 4.28313 116.324 5.34145C113.91 6.37823 111.625 7.52768 111.625 7.52768C111.625 7.52768 111.73 6.864 111.894 5.87155C112.021 4.8828 112.175 3.55481 112.286 2.19851C112.349 1.45294 112.399 0.705526 112.437 0.00367064L104.564 0.00366995C104.66 0.491274 104.758 0.994286 104.85 1.49728C105.104 2.87637 105.337 4.36687 105.469 5.40364Z" fill="#FDFBF9"/>
<path d="M68.0381 9.47177C69.7922 9.94399 71.5384 10.4224 71.5384 10.4224L73.2637 0.00162677L67.5694 0.00162627L64.4843 8.58646C64.4843 8.58707 66.263 9.02788 68.0381 9.47177Z" fill="#FDFBF9"/>
<path d="M81.1444 4.60364C81.9736 5.19283 82.5308 5.58252 82.5308 5.58252C82.5308 5.58252 83.4196 3.91286 84.304 2.23887C84.7463 1.42927 85.186 0.6178 85.52 0.000289719L74.161 0.000288724C75.0565 0.550692 76.5653 1.4982 78.0384 2.47711C79.1959 3.21529 80.311 4.02122 81.1444 4.60364Z" fill="#FDFBF9"/>
<path d="M33.4624 2.49658L33.6211 0.000120722L26 0.000120055L25.671 1.11076L33.4624 2.49658Z" fill="#FDFBF9"/>
<path d="M185.202 153.146L185.202 145.785L182.818 152.684C182.818 152.684 183.804 152.874 185.202 153.146Z" fill="#FDFBF9"/>
<path d="M164.438 129C163.748 129.669 163.282 130.114 163.282 130.114C163.282 130.114 163.342 127.407 163.657 124.837C163.808 123.559 164.027 122.207 164.2 121.252C164.387 120.299 164.505 119.658 164.505 119.658C164.505 119.658 162.941 119.876 161.283 119.818C159.623 119.864 157.898 119.652 157.898 119.652C157.898 119.652 157.55 122.399 157.511 125.153C157.398 127.969 157.662 130.79 157.662 130.79C157.662 130.79 157.088 130.503 156.233 130.064C155.397 129.568 154.279 128.904 153.172 128.243C152.095 127.51 151.029 126.769 150.221 126.218C149.443 125.621 148.919 125.223 148.919 125.223C148.919 125.223 147.821 126.875 146.711 128.534C145.635 130.203 144.546 131.88 144.546 131.88C144.546 131.88 145.272 132.262 146.415 132.766C147.554 133.271 149.017 133.972 150.581 134.522C151.347 134.811 152.109 135.093 152.825 135.36C153.557 135.582 154.243 135.788 154.826 135.965C155.987 136.304 156.765 136.53 156.765 136.53C156.765 136.53 155.083 138.873 153.329 141.179C151.585 143.491 149.778 145.758 149.778 145.758C149.778 145.758 150.348 146.095 151.2 146.6C152.089 147.076 153.308 147.682 154.516 148.282C155.874 148.956 156.553 149.264 157.291 149.61C157.966 149.925 158.42 150.137 158.42 150.137L162.05 139.129L170.923 146.883L175.394 140.341L166.15 135.11L176.387 129.652L171.133 123.078C171.133 123.078 169.136 124.827 167.145 126.578C166.156 127.461 165.135 128.329 164.438 129Z" fill="#FDFBF9"/>
<path d="M118.564 114.877C119.213 115.773 119.857 116.671 120.339 117.344C120.846 118.018 121.18 118.468 121.18 118.468C121.18 118.468 123.28 116.473 125.377 114.476C127.487 112.501 129.599 110.521 129.599 110.521C129.599 110.521 129.877 111.229 130.293 112.286C130.706 113.343 131.263 114.762 131.881 116.168C132.486 117.585 133.106 119.003 133.628 120.045C134.135 121.109 134.471 121.812 134.471 121.812C134.471 121.812 136.138 120.762 137.808 119.711C139.473 118.636 141.141 117.558 141.141 117.558C141.141 117.558 140.727 117.051 140.158 116.251C139.586 115.444 138.788 114.413 138.056 113.321C137.321 112.239 136.583 111.157 136.04 110.339C135.509 109.507 135.158 108.958 135.158 108.958C135.158 108.958 138.027 108.951 140.879 108.768C142.282 108.669 143.69 108.571 144.749 108.501C145.794 108.39 146.499 108.323 146.499 108.323C146.499 108.323 146.407 107.852 146.275 107.156C146.153 106.444 145.994 105.497 145.833 104.554C145.669 103.623 145.533 102.678 145.434 101.959C145.336 101.247 145.264 100.768 145.264 100.768C145.264 100.768 142.746 101.465 140.18 102.086C137.609 102.671 135.045 103.26 135.045 103.26C135.045 103.26 136.365 100.891 137.691 98.522C139.056 96.1825 140.413 93.8399 140.413 93.8399C140.413 93.8399 138.685 93.0038 136.965 92.0939C135.237 91.211 133.505 90.2641 133.505 90.2641C133.505 90.2641 132.499 92.9651 131.482 95.6555C130.488 98.3632 129.544 101.094 129.544 101.094C129.544 101.094 127.929 99.0029 126.302 96.9108C124.707 94.7856 123.124 92.6566 123.124 92.6566L117.038 97.7672C117.038 97.7672 119.325 99.8112 121.627 101.851C123.919 103.884 126.283 105.848 126.283 105.848L116.057 111.285C116.058 111.286 117.259 113.085 118.564 114.877Z" fill="#FDFBF9"/>
<path d="M95.8434 63.9811C96.7032 64.6713 97.859 65.5947 99.003 66.5188C101.29 68.4064 103.556 70.3692 103.556 70.3692L93.2897 75.6959C93.2897 75.6959 94.366 77.3262 95.4325 78.9595C96.504 80.6311 97.5711 82.2921 97.5711 82.2921L106.593 75.0513L109.88 86.3979L117.155 83.303L112.237 73.8945L123.793 74.8518C123.793 74.8518 123.594 72.782 123.392 70.7066C123.174 68.6158 122.962 66.5287 122.962 66.5287L112.415 68.09C112.415 68.09 113.782 65.7117 115.142 63.3309C116.485 60.9188 117.831 58.5035 117.831 58.5035C117.831 58.5035 115.99 57.4864 114.153 56.4663C112.297 55.4738 110.443 54.4802 110.443 54.4802C110.443 54.4802 109.64 57.3375 108.742 60.1295C107.824 62.8994 106.904 65.668 106.904 65.668C106.904 65.668 105.227 63.5704 103.562 61.471C101.875 59.3815 100.114 57.3516 100.114 57.3516L94.4011 62.8637C94.3992 62.8631 94.9897 63.2909 95.8434 63.9811Z" fill="#FDFBF9"/>
<path d="M71.4512 38.462C72.8713 38.7385 74.1322 39.1238 75.1846 39.3738C75.7129 39.4939 76.1096 39.6644 76.4073 39.7555C76.7026 39.8546 76.8686 39.9125 76.8686 39.9125C76.8686 39.9125 74.9804 42.0932 73.1518 44.3225C71.3189 46.545 69.5457 48.8156 69.5457 48.8156C69.5457 48.8156 69.8483 49.0342 70.3047 49.366C70.7586 49.7003 71.3835 50.0802 71.9838 50.5758C72.5866 51.0615 73.1924 51.5553 73.6488 51.9228C74.1101 52.2812 74.401 52.5841 74.401 52.5841C74.401 52.5841 76.0924 50.2322 77.7814 47.8773C79.4248 45.5058 81.0707 43.13 81.0707 43.13C81.0707 43.13 81.1691 43.2771 81.3401 43.5295C81.4994 43.7967 81.7319 44.1766 82.0056 44.6303C82.5487 45.5446 83.2837 46.7137 83.9203 47.9709C84.5907 49.2028 85.2371 50.4237 85.6763 51.3891C86.121 52.331 86.4137 52.9565 86.4137 52.9565C86.4137 52.9565 88.0762 51.8748 89.732 50.7925C91.3994 49.7335 93.0619 48.6758 93.0619 48.6758C93.0619 48.6814 92.6732 48.1371 92.0483 47.3516C91.4166 46.5672 90.6262 45.475 89.7393 44.4653C88.853 43.4483 88.0098 42.3899 87.3025 41.6548C86.6013 40.9185 86.1308 40.4303 86.1308 40.4303C86.1308 40.4303 86.8541 40.2955 87.9329 40.1064C89.0382 39.9144 90.5014 39.705 91.9622 39.5437C93.4352 39.3757 94.939 39.2334 96.0757 39.1491C97.2 39.0721 97.9448 39.0241 97.9448 39.0241C97.9448 39.0241 97.7837 38.483 97.4835 37.6795C97.1637 36.8693 96.751 35.7913 96.3303 34.712C95.9244 33.6149 95.4176 32.5431 95.0356 31.7273C94.6487 30.9042 94.3966 30.3636 94.3966 30.3636C94.3966 30.3636 91.8453 31.2939 89.3057 32.4027C86.7877 33.4832 84.3994 34.6856 84.3994 34.6856C84.3994 34.6856 84.5101 33.9899 84.6731 32.9519C84.8053 31.9243 84.9683 30.5323 85.084 29.1157C85.2014 27.6996 85.2857 26.2615 85.3294 25.1699C85.3693 24.0851 85.3429 23.3684 85.3429 23.3684C85.3429 23.3684 84.7278 23.27 83.8052 23.1185C82.9042 22.9954 81.6476 22.7454 80.5282 22.6851C78.3011 22.5896 76.0789 22.4887 76.0789 22.4887C76.0789 22.4887 76.7899 25.4802 77.309 28.3806C77.5784 29.8286 77.8158 31.3819 77.9579 32.4667C78.0852 33.565 78.167 34.2964 78.167 34.2964C78.167 34.2964 77.5569 33.9818 76.6367 33.501C75.7283 32.9931 74.484 32.4519 73.2416 31.9114C72.0115 31.3511 70.7623 30.8235 69.8133 30.4831C68.8692 30.1149 68.2418 29.8742 68.2418 29.8742C68.2418 29.8742 67.6483 31.7741 67.0621 33.674C66.4544 35.5641 65.8486 37.4548 65.8486 37.4548C65.8486 37.4548 66.5529 37.5582 67.6046 37.7202C68.6613 37.8895 70.0408 38.1887 71.4512 38.462Z" fill="#FDFBF9"/>
<path d="M37.2878 25.0169C38.4005 24.9763 39.1471 24.9522 39.1471 24.9522L35.236 35.8371C35.236 35.8371 37.0978 36.3045 38.9528 36.7705C40.7838 37.2661 42.6068 37.7617 42.6068 37.7617L44.5049 26.3455C44.5049 26.3455 47.0033 27.8557 49.3971 29.4552C50.6076 30.2272 51.7743 31.0707 52.652 31.6839C53.5168 32.2953 54.1005 32.6991 54.1005 32.6991C54.1005 32.6991 55.0255 30.9525 55.9555 29.2096C56.8947 27.4685 57.8345 25.7335 57.8345 25.7335C57.8345 25.7335 57.2317 25.4429 56.311 25.0631C55.3909 24.6709 54.1509 24.1513 52.9208 23.6317C51.6716 23.1459 50.4267 22.6608 49.4949 22.3C48.5557 21.9269 47.9284 21.7009 47.9284 21.7009C47.9284 21.7009 50.2348 19.9648 52.6373 18.2643C55.0305 16.5343 57.5189 14.9496 57.5189 14.9496C57.5189 14.9496 55.9364 13.4135 54.3028 11.9723C53.486 11.2372 52.6569 10.5033 52.0468 9.94734C51.4243 9.41849 51.011 9.06078 51.011 9.06078C51.011 9.06078 49.2643 11.0974 47.5175 13.1414C45.7947 15.1885 44.1273 17.2682 44.1273 17.2682C44.1273 17.2682 43.5073 14.5894 42.8898 11.9125C42.2194 9.22395 41.549 6.53843 41.549 6.53843C41.549 6.53843 39.5162 7.04326 37.4908 7.54872C35.4894 8.08496 33.488 8.61813 33.488 8.61813C33.488 8.61813 34.747 11.2643 36.0011 13.9141C37.2048 16.5744 38.4085 19.2291 38.4085 19.2291C38.4085 19.2291 35.7656 18.8227 33.111 18.4188C30.4681 18.0267 27.8184 17.6899 27.8184 17.6899L27.2538 25.6166C27.2538 25.6166 30.2257 25.422 33.1928 25.2182C34.6806 25.1499 36.1702 25.0729 37.2878 25.0169Z" fill="#FDFBF9"/>
<path d="M3.66444 17.944L14.2963 23.1316L16.8906 15.6599L6.62718 12.9996L15.0627 5.06314L8.41453 0.103947L2.52104 8.94548L0.678354 2.51861L0.678351 29.1035L2.93744 29.5049L3.66444 17.944Z" fill="#FDFBF9"/>
<path d="M178.877 169.021L170.343 169.146L172.503 181.078L162.211 176.783L159.506 184.623C159.506 184.623 159.652 184.652 159.895 184.7L184.01 184.7L185.202 184.147L185.202 175.408L178.715 180.495L178.877 169.021Z" fill="#FDFBF9"/>
<path d="M147.444 153.787C147.444 153.787 145.359 155.612 143.276 157.437C142.245 158.357 141.179 159.263 140.453 159.967C139.73 160.663 139.244 161.125 139.244 161.125C139.244 161.125 139.309 158.301 139.636 155.617C139.792 154.285 140.025 152.88 140.198 151.887C140.398 150.887 140.525 150.218 140.525 150.218C140.525 150.218 138.889 150.441 137.166 150.384C135.422 150.432 133.627 150.216 133.627 150.216C133.627 150.216 133.259 153.075 133.216 155.947C133.108 158.888 133.38 161.841 133.38 161.841C133.38 161.841 132.784 161.531 131.885 161.079C131.015 160.56 129.857 159.862 128.697 159.175C127.577 158.408 126.457 157.64 125.621 157.06C124.802 156.437 124.264 156.019 124.264 156.019C124.264 156.019 123.116 157.748 121.957 159.475C120.831 161.223 119.699 162.967 119.699 162.967C119.699 162.967 120.454 163.366 121.647 163.893C122.835 164.424 124.36 165.155 125.996 165.725C126.791 166.026 127.589 166.322 128.334 166.601C129.098 166.832 129.816 167.046 130.426 167.236C131.635 167.587 132.442 167.825 132.442 167.825C132.442 167.825 130.69 170.264 128.867 172.673C127.043 175.083 125.153 177.452 125.153 177.452C125.153 177.452 125.746 177.8 126.642 178.333C127.57 178.825 128.838 179.461 130.1 180.084C131.507 180.789 132.233 181.103 132.995 181.473C133.701 181.806 134.174 182.022 134.174 182.022L137.963 170.534L147.218 178.629L151.881 171.803L142.235 166.339L152.917 160.645L147.444 153.787Z" fill="#FDFBF9"/>
<path d="M119.99 138.666C121.088 138.552 121.819 138.475 121.819 138.475C121.819 138.475 121.728 137.993 121.586 137.261C121.461 136.521 121.29 135.539 121.12 134.551C120.956 133.582 120.812 132.593 120.709 131.836C120.605 131.095 120.538 130.599 120.538 130.599C120.538 130.599 117.9 131.326 115.229 131.973C112.55 132.586 109.873 133.196 109.873 133.196C109.873 133.196 111.25 130.724 112.624 128.252C114.044 125.813 115.464 123.367 115.464 123.367C115.469 123.365 113.672 122.492 111.875 121.544C110.067 120.626 108.264 119.644 108.264 119.644C108.264 119.644 107.211 122.451 106.154 125.262C105.106 128.091 104.131 130.941 104.131 130.941C104.131 130.941 102.437 128.762 100.741 126.573C99.0831 124.353 97.4224 122.131 97.4224 122.131L91.0677 127.468C91.0677 127.468 93.4701 129.598 95.8633 131.724C98.2565 133.848 100.721 135.904 100.721 135.904L90.0583 141.573C90.0583 141.573 91.3051 143.449 92.6724 145.319C93.3428 146.256 94.0181 147.196 94.5249 147.893C95.0489 148.595 95.402 149.064 95.402 149.064C95.402 149.064 97.5885 146.981 99.7794 144.901C101.983 142.836 104.188 140.771 104.188 140.771C104.188 140.771 104.472 141.508 104.909 142.613C105.336 143.722 105.921 145.198 106.569 146.669C107.194 148.141 107.847 149.621 108.383 150.715C108.914 151.824 109.262 152.558 109.262 152.558C109.262 152.558 111.009 151.456 112.746 150.36C114.488 149.24 116.22 148.115 116.22 148.115C116.22 148.115 115.799 147.587 115.204 146.75C114.601 145.911 113.767 144.836 113.006 143.695C112.239 142.562 111.478 141.432 110.908 140.581C110.353 139.72 109.986 139.143 109.986 139.143C109.986 139.143 112.97 139.13 115.954 138.941C117.424 138.842 118.887 138.743 119.99 138.666Z" fill="#FDFBF9"/>
<path d="M68.6073 107.95C69.7218 109.689 70.8369 111.428 70.8369 111.428L80.2528 103.872L83.6836 115.716L91.2735 112.481L86.1365 102.669L98.1904 103.662C98.1904 103.662 97.9862 101.494 97.782 99.3331C97.5563 97.1512 97.3281 94.9754 97.3281 94.9754L86.3265 96.61C86.3265 96.61 87.7486 94.1209 89.1712 91.6367C90.5766 89.1242 91.9728 86.6037 91.9728 86.6037C91.9728 86.6037 90.0532 85.5386 88.1385 84.4747C86.2091 83.441 84.2704 82.4043 84.2704 82.4043C84.2704 82.4043 83.4296 85.3791 82.4947 88.2961C81.5359 91.1873 80.5702 94.0802 80.5702 94.0802C80.5702 94.0802 78.8308 91.8873 77.089 89.6937C75.3281 87.5148 73.4878 85.4013 73.4878 85.4013L67.5272 91.154C67.5272 91.154 68.1423 91.5991 69.036 92.3176C69.9395 93.0466 71.1407 94.0039 72.337 94.9711C74.713 96.9332 77.0847 98.9846 77.0847 98.9846L66.3617 104.538C66.3605 104.537 67.4873 106.245 68.6073 107.95Z" fill="#FDFBF9"/>
<path d="M53.1248 49.3288C50.8011 49.2186 48.4798 49.1151 48.4798 49.1151C48.4798 49.1151 49.2173 52.2291 49.7604 55.2662C50.0464 56.769 50.2986 58.3907 50.4425 59.5254C50.5723 60.6754 50.6609 61.437 50.6609 61.437C50.6609 61.437 50.0193 61.1033 49.0604 60.6046C48.1108 60.0733 46.8167 59.5063 45.5214 58.9435C44.2335 58.3642 42.9338 57.8101 41.9442 57.4493C40.9589 57.075 40.3032 56.8195 40.3032 56.8195C40.3032 56.8195 39.6882 58.8019 39.0731 60.7807C38.439 62.7582 37.8067 64.732 37.8067 64.732C37.8067 64.732 38.5374 64.8459 39.6377 65.0041C40.7454 65.182 42.173 65.4942 43.6547 65.7804C45.1321 66.0723 46.4563 66.4663 47.5517 66.7329C48.0942 66.8578 48.5124 67.0315 48.8224 67.1324C49.1324 67.2377 49.3052 67.2931 49.3052 67.2931C49.3052 67.2931 47.3327 69.576 45.4273 71.9063C43.5126 74.2199 41.665 76.5834 41.665 76.5834C41.665 76.5834 41.9774 76.8174 42.4498 77.1542C42.9258 77.5125 43.5772 77.9133 44.2113 78.4255C44.8405 78.9359 45.4728 79.45 45.9458 79.8329C46.4212 80.2035 46.7312 80.52 46.7312 80.52C46.7312 80.52 48.4946 78.0647 50.258 75.6119C51.9734 73.1296 53.6912 70.6571 53.6912 70.6571C53.6912 70.6571 53.797 70.8086 53.9698 71.0757C54.1427 71.3546 54.3782 71.7474 54.6667 72.2203C55.2393 73.1702 56.0026 74.3892 56.6681 75.7055C57.3625 76.9892 58.0305 78.2636 58.4869 79.2714C58.9531 80.2602 59.268 80.9072 59.268 80.9072C59.268 80.9072 61.0006 79.7861 62.7326 78.649C64.4646 77.5451 66.2021 76.4462 66.2021 76.4462C66.2021 76.448 65.7962 75.8754 65.1449 75.0554C64.4843 74.2378 63.6626 73.1006 62.7351 72.0417C61.81 70.9834 60.9237 69.8845 60.193 69.113C59.4556 68.3484 58.9684 67.8306 58.9684 67.8306C58.9684 67.8306 59.7243 67.6958 60.8585 67.4963C62.0068 67.2919 63.5353 67.0727 65.0508 66.9053C66.594 66.7317 68.1623 66.5901 69.3512 66.4934C70.5235 66.4189 71.3022 66.3641 71.3022 66.3641C71.3022 66.3641 71.1343 65.7983 70.817 64.9622C70.4805 64.1231 70.0457 62.9971 69.6133 61.8673C69.1833 60.7265 68.6544 59.6035 68.2583 58.7545C67.8573 57.9012 67.5879 57.3311 67.5879 57.3311C67.5879 57.3311 64.9308 58.3002 62.2855 59.4552C59.6475 60.583 57.1608 61.8402 57.1608 61.8402C57.1608 61.8402 57.2721 61.1162 57.4443 60.0296C57.5858 58.9546 57.7543 57.509 57.8718 56.0278C57.9991 54.5514 58.0858 53.0455 58.124 51.9102C58.1719 50.7731 58.148 50.0269 58.148 50.0269C58.148 50.0269 57.5065 49.9217 56.5457 49.7647C55.6029 49.6397 54.2965 49.3873 53.1248 49.3288Z" fill="#FDFBF9"/>
<path d="M8.13087 51.8016C9.29825 51.7653 10.0695 51.7345 10.0695 51.7345L5.98983 63.0978C5.98983 63.0978 7.93096 63.5805 9.86286 64.0668C11.7726 64.5834 13.6756 65.1055 13.6756 65.1055L15.6623 53.1875C15.6623 53.1875 18.2689 54.7648 20.7728 56.4357C22.0367 57.2398 23.2545 58.1165 24.1655 58.7586C25.069 59.3958 25.6792 59.8225 25.6792 59.8225C25.6792 59.8225 26.6448 57.9989 27.6111 56.1784C28.5915 54.3696 29.5762 52.5571 29.5762 52.5571C29.5762 52.5571 28.9445 52.2468 27.9807 51.8503C27.015 51.4433 25.7296 50.9028 24.449 50.3585C23.1445 49.8518 21.8492 49.3482 20.8694 48.969C19.8939 48.586 19.2358 48.3478 19.2358 48.3478C19.2358 48.3478 21.6431 46.5347 24.1563 44.7554C26.6479 42.9564 29.2496 41.2991 29.2496 41.2991C29.2496 41.2991 27.5895 39.7027 25.8883 38.1925C25.029 37.4223 24.1704 36.6607 23.5314 36.0826C22.8849 35.5223 22.4525 35.1493 22.4525 35.1493C22.4525 35.1493 20.6289 37.2801 18.8052 39.4158C17.0129 41.5491 15.2711 43.7155 15.2711 43.7155C15.2711 43.7155 14.6246 40.9186 13.9782 38.1247C13.2789 35.3253 12.5845 32.5235 12.5845 32.5235C12.5845 32.5235 10.4662 33.048 8.34181 33.5769C6.2586 34.134 4.17356 34.69 4.17356 34.69C4.17356 34.69 5.48302 37.453 6.79248 40.2211C8.05397 42.9866 9.30317 45.7694 9.30317 45.7694C9.30317 45.7694 6.54521 45.3446 3.78175 44.9179C2.6894 44.7591 1.60259 44.6076 0.682459 44.4827L0.682458 52.2314C1.6481 52.1692 2.75646 52.0947 3.86603 52.0202C5.41352 51.9438 6.9684 51.862 8.13087 51.8016Z" fill="#FDFBF9"/>
<path d="M116.535 180.78C116.535 180.78 114.83 181.013 113.037 180.951C111.223 181.001 109.349 180.773 109.349 180.773C109.349 180.773 109.125 182.532 109.001 184.7L115.841 184.7C115.961 183.894 116.088 183.127 116.196 182.516C116.396 181.475 116.535 180.78 116.535 180.78Z" fill="#FDFBF9"/>
<path d="M123.516 184.7L123.898 184.7L123.739 184.503C123.739 184.503 123.66 184.573 123.516 184.7Z" fill="#FDFBF9"/>
<path d="M96.4182 164.538C96.2448 163.531 96.0935 162.499 95.9852 161.718C95.8745 160.943 95.8026 160.423 95.8026 160.423C95.8026 160.423 93.0563 161.186 90.272 161.854C87.4777 162.489 84.6958 163.133 84.6958 163.133C84.6958 163.133 86.1277 160.563 87.5595 157.982C89.0394 155.438 90.5241 152.896 90.5241 152.896C90.5241 152.896 88.6476 151.982 86.7735 150.996C84.8945 150.034 83.0136 149.007 83.0136 149.007C83.0136 149.007 81.9157 151.939 80.8179 154.866C79.7341 157.811 78.7058 160.782 78.7058 160.782C78.7058 160.782 76.9473 158.509 75.1858 156.228C73.4538 153.917 71.7211 151.606 71.7211 151.606L65.1092 157.164C65.1092 157.164 67.6033 159.381 70.1041 161.599C72.5933 163.809 75.1618 165.952 75.1618 165.952L64.0544 171.85C64.0544 171.85 65.3516 173.804 66.7785 175.756C67.4735 176.732 68.1802 177.709 68.7086 178.437C69.2517 179.174 69.6213 179.659 69.6213 179.659C69.6213 179.659 71.8989 177.487 74.1789 175.318C76.4755 173.168 78.7728 171.018 78.7728 171.018C78.7728 171.018 79.0705 171.786 79.5182 172.938C79.9691 174.094 80.5749 175.633 81.2546 177.156C81.9059 178.698 82.5806 180.239 83.1459 181.381C83.6927 182.528 84.058 183.295 84.058 183.295C84.058 183.295 85.8767 182.155 87.6905 181.006C89.4994 179.839 91.3114 178.672 91.3114 178.672C91.3114 178.672 90.8643 178.118 90.24 177.247C89.62 176.377 88.7527 175.249 87.955 174.065C87.1622 172.889 86.3694 171.709 85.771 170.825C85.1946 169.923 84.8121 169.324 84.8121 169.324C84.8121 169.324 87.9279 169.308 91.0272 169.117C92.555 169.012 94.0927 168.901 95.2392 168.827C96.3783 168.706 97.1323 168.632 97.1323 168.632C97.1323 168.632 97.0364 168.127 96.8875 167.363C96.759 166.594 96.5911 165.566 96.4182 164.538Z" fill="#FDFBF9"/>
<path d="M60.0335 131.429L72.5894 132.464C72.5894 132.464 72.3778 130.21 72.1619 127.962C71.9263 125.689 71.6908 123.416 71.6908 123.416L60.2303 125.12C60.2303 125.12 61.7101 122.532 63.1974 119.942C64.6508 117.318 66.1091 114.696 66.1091 114.696C66.1091 114.696 64.1126 113.588 62.1136 112.483C60.0981 111.403 58.0819 110.326 58.0819 110.326C58.0819 110.326 57.2122 113.423 56.2293 116.461C55.2323 119.47 54.2328 122.485 54.2328 122.485C54.2328 122.485 52.4141 120.205 50.6003 117.918C48.7692 115.646 46.857 113.443 46.857 113.443L40.6388 119.438C40.6388 119.438 41.2833 119.902 42.2201 120.652C43.155 121.406 44.4042 122.406 45.6534 123.414C48.1327 125.462 50.6003 127.595 50.6003 127.595L39.4382 133.381C39.4382 133.381 40.6012 135.157 41.7711 136.933C42.9292 138.744 44.0917 140.558 44.0917 140.558L53.8964 132.677L57.4736 145.017L65.3759 141.652L60.0335 131.429Z" fill="#FDFBF9"/>
<path d="M19.0701 108.457C19.0701 108.457 20.9079 105.904 22.7463 103.35C24.5336 100.764 26.321 98.1863 26.321 98.1863C26.321 98.1863 26.4243 98.3421 26.6144 98.621C26.7897 98.9073 27.0394 99.3241 27.3328 99.816C27.9312 100.807 28.7216 102.077 29.4203 103.447C30.1467 104.784 30.8429 106.112 31.3239 107.16C31.8092 108.185 32.129 108.866 32.129 108.866C32.129 108.866 33.9311 107.692 35.7351 106.514C37.5489 105.367 39.3535 104.215 39.3535 104.215C39.3535 104.215 38.9303 103.623 38.2532 102.772C37.5661 101.921 36.7057 100.735 35.7449 99.6288C34.7818 98.5231 33.8616 97.3835 33.0904 96.5794C32.3264 95.7809 31.8196 95.2422 31.8196 95.2422C31.8196 95.2422 32.6032 95.1049 33.7805 94.8944C34.9792 94.6851 36.5747 94.4567 38.1634 94.2812C39.7674 94.0977 41.3918 93.9487 42.6318 93.8533C43.8496 93.7733 44.6646 93.7203 44.6646 93.7203C44.6646 93.7203 44.4893 93.1336 44.1578 92.2581C43.8189 91.3784 43.3625 90.2049 42.9086 89.0339C42.4565 87.8451 41.9116 86.6796 41.4958 85.7894C41.0751 84.8997 40.8014 84.3032 40.8014 84.3032C40.8014 84.3032 38.0336 85.3153 35.2756 86.5226C32.5269 87.6961 29.9418 88.9994 29.9418 88.9994C29.9418 88.9994 30.0575 88.2539 30.2303 87.1186C30.3841 85.9981 30.5569 84.4891 30.6818 82.9487C30.814 81.4139 30.8983 79.8464 30.9438 78.6551C30.9924 77.4767 30.9702 76.6948 30.9702 76.6948C30.9702 76.6948 30.2974 76.5889 29.2954 76.4276C28.3101 76.3002 26.9526 76.0238 25.725 75.9634C23.3127 75.8508 20.8937 75.743 20.8937 75.743C20.8937 75.743 21.6625 78.9968 22.2296 82.1496C22.5248 83.7171 22.7893 85.4151 22.9357 86.594C23.0729 87.789 23.1713 88.5783 23.1713 88.5783C23.1713 88.5783 22.4935 88.2366 21.5038 87.7189C20.5142 87.1666 19.1592 86.5743 17.811 85.9851C16.4727 85.375 15.1201 84.8074 14.0825 84.4343C13.0591 84.0347 12.377 83.7749 12.377 83.7749C12.377 83.7749 11.7305 85.8393 11.0915 87.9017C10.4309 89.9556 9.77031 92.0143 9.77031 92.0143C9.77031 92.0143 10.5392 92.1301 11.685 92.2982C12.8333 92.489 14.3279 92.8061 15.8656 93.109C17.4057 93.4088 18.7847 93.8225 19.9213 94.0965C20.4908 94.2313 20.9306 94.4166 21.2498 94.5158C21.5715 94.6216 21.7566 94.6838 21.7566 94.6838C21.7566 94.6838 19.6974 97.0597 17.7157 99.4841C15.7247 101.898 13.7947 104.369 13.7947 104.369C13.7947 104.369 14.1262 104.597 14.6213 104.957C15.1091 105.326 15.7844 105.737 16.4425 106.276C17.1006 106.809 17.7618 107.341 18.2563 107.743C18.7484 108.133 19.0701 108.457 19.0701 108.457Z" fill="#FDFBF9"/>
<path d="M0.68036 67.3747L0.68036 67.8286C0.858113 67.7111 0.958984 67.6466 0.958984 67.6466C0.958984 67.6466 0.858113 67.5451 0.68036 67.3747Z" fill="#FDFBF9"/>
<path d="M0.686263 79.0812L0.686263 80.5225C1.05654 79.8323 1.30811 79.3706 1.30811 79.3706C1.30811 79.3706 1.08115 79.2567 0.686263 79.0812Z" fill="#FDFBF9"/>
<path d="M41.71 184.7L48.7305 184.7C47.2721 182.75 46.018 181.073 46.018 181.073L41.71 184.7Z" fill="#FDFBF9"/>
<path d="M61.6754 180.443C59.7195 179.447 57.7685 178.377 57.7685 178.377C57.7685 178.377 56.6276 181.421 55.4836 184.469C55.4522 184.546 55.4258 184.62 55.3968 184.7L64.2408 184.7C65.0115 183.367 65.5669 182.415 65.5669 182.415C65.5669 182.415 63.6264 181.465 61.6754 180.443Z" fill="#FDFBF9"/>
<path d="M46.0491 151.862L34.1322 153.624C34.1322 153.624 35.6748 150.936 37.2199 148.242C38.7403 145.515 40.2496 142.791 40.2496 142.791C40.2496 142.791 38.1713 141.639 36.098 140.49C33.9957 139.369 31.9032 138.241 31.9032 138.241C31.9032 138.241 30.9997 141.471 29.9762 144.626C28.9405 147.757 27.898 150.896 27.898 150.896C27.898 150.896 26.0097 148.518 24.1209 146.141C22.2154 143.779 20.2238 141.492 20.2238 141.492L13.7681 147.726C13.7681 147.726 14.441 148.204 15.4042 148.983C16.3748 149.765 17.6744 150.809 18.9697 151.855C21.5548 153.983 24.1184 156.206 24.1184 156.206L12.5091 162.222C12.5091 162.222 13.7201 164.074 14.938 165.919C16.1441 167.802 17.3502 169.687 17.3502 169.687L27.5492 161.493L31.271 174.328L39.4925 170.822L33.928 160.194L46.9907 161.27C46.9907 161.27 46.7675 158.93 46.5436 156.585C46.2982 154.219 46.0491 151.862 46.0491 151.862Z" fill="#FDFBF9"/>
<path d="M4.14485 135.043C4.65166 136.109 4.99548 136.818 4.99548 136.818C4.99548 136.818 6.86647 135.597 8.73625 134.37C10.6196 133.175 12.5035 131.982 12.5035 131.982C12.5035 131.982 12.0643 131.364 11.3576 130.475C10.6417 129.589 9.74802 128.36 8.74609 127.213C7.74661 126.063 6.78528 124.878 5.99247 124.038C5.19474 123.206 4.6738 122.646 4.6738 122.646C4.6738 122.646 5.48505 122.505 6.7084 122.286C7.96005 122.064 9.60843 121.828 11.2611 121.65C12.9285 121.463 14.6224 121.299 15.9054 121.201C17.1786 121.114 18.0273 121.064 18.0273 121.064C18.0273 121.064 17.8441 120.453 17.4984 119.544C17.1429 118.625 16.6693 117.411 16.1988 116.189C15.735 114.95 15.1655 113.737 14.7306 112.819C14.2933 111.889 14.0024 111.268 14.0024 111.268C14.0024 111.268 11.1288 112.327 8.25281 113.577C5.40324 114.798 2.705 116.16 2.705 116.16C2.705 116.16 2.8274 115.376 3.01253 114.2C3.16875 113.038 3.34894 111.465 3.48118 109.861C3.61834 108.264 3.71185 106.636 3.75737 105.397C3.80288 104.171 3.77152 103.36 3.77152 103.36C3.77152 103.36 3.08202 103.254 2.03457 103.081C1.63786 103.028 1.17164 102.951 0.684511 102.874L0.684509 128.537C1.16487 129.339 1.68892 130.231 2.17174 131.178C2.91965 132.571 3.65219 133.952 4.14485 135.043Z" fill="#FDFBF9"/>
<path d="M8.04558 182.146C8.04558 182.146 9.65025 179.346 11.2433 176.553C12.824 173.719 14.3979 170.883 14.3979 170.883C14.3979 170.883 12.2403 169.691 10.0851 168.495C7.90102 167.332 5.72679 166.165 5.72679 166.165C5.72679 166.165 4.78761 169.515 3.7254 172.796C2.64905 176.048 1.56778 179.301 1.56778 179.301C1.56778 179.301 1.22147 178.868 0.683289 178.187L0.683288 184.7L20.8794 184.7C20.6414 182.43 20.423 180.308 20.423 180.308L8.04558 182.146Z" fill="#FDFBF9"/>
</svg>
