<svg width="26" height="32" viewBox="0 0 26 32" fill="none" xmlns="http://www.w3.org/2000/svg">
<path d="M22.5059 14.209H4.22443C2.78206 14.209 1.61279 15.555 1.61279 17.2153V27.7374C1.61279 29.3977 2.78206 30.7437 4.22443 30.7437H22.5059C23.9482 30.7437 25.1175 29.3977 25.1175 27.7374V17.2153C25.1175 15.555 23.9482 14.209 22.5059 14.209Z" stroke="black" stroke-width="1.30582" stroke-linecap="round" stroke-linejoin="round"/>
<path d="M6.83691 14.21V8.19742C6.83691 6.20411 7.5248 4.29244 8.74924 2.88296C9.97368 1.47348 11.6344 0.681641 13.366 0.681641C15.0976 0.681641 16.7583 1.47348 17.9828 2.88296C19.2072 4.29244 19.8951 6.20411 19.8951 8.19742V14.21" stroke="black" stroke-width="1.30582" stroke-linecap="round" stroke-linejoin="round"/>
</svg>
